<svg xmlns="http://www.w3.org/2000/svg" width="21.213" height="21.213" viewBox="0 0 21.213 21.213"><defs><style>.a{fill:#00547a;}</style></defs><path class="a" d="M1.5-12a1.447,1.447,0,0,1,1.062.437A1.447,1.447,0,0,1,3-10.5v9A1.447,1.447,0,0,1,2.562-.437,1.447,1.447,0,0,1,1.5,0h-9A1.447,1.447,0,0,1-8.563-.437,1.447,1.447,0,0,1-9-1.5v-9a1.447,1.447,0,0,1,.437-1.062A1.447,1.447,0,0,1-7.5-12Zm5.937,1.187a.954.954,0,0,1,.688-.172,1,1,0,0,1,.625.313.9.9,0,0,1,.25.641V-2a.941.941,0,0,1-.25.672,1,1,0,0,1-.625.312.954.954,0,0,1-.687-.172L4-3.531V-8.469Z" transform="translate(6.364 14.849) rotate(45)"/></svg>