<svg xmlns="http://www.w3.org/2000/svg" width="16" height="16" viewBox="0 0 16 16"><defs><style>.a{fill:#00547a;}</style></defs><path class="a" d="M7.469-6.969a.541.541,0,0,1,.375.141A.462.462,0,0,1,8-6.469v.937a.462.462,0,0,1-.156.359.541.541,0,0,1-.375.141l-.531-.031A6.876,6.876,0,0,1,5.562-1.75l.406.344a.572.572,0,0,1,.172.375A.379.379,0,0,1,6-.687L5.312,0a.465.465,0,0,1-.344.125.511.511,0,0,1-.375-.156L4.25-.437A6.876,6.876,0,0,1,.937.937l.031.531a.541.541,0,0,1-.141.375A.462.462,0,0,1,.469,2H-.469a.462.462,0,0,1-.359-.156.541.541,0,0,1-.141-.375L-.938.937A6.876,6.876,0,0,1-4.25-.437l-.344.406a.511.511,0,0,1-.375.156A.465.465,0,0,1-5.313,0L-6-.687a.465.465,0,0,1-.125-.344.511.511,0,0,1,.156-.375l.406-.344A6.876,6.876,0,0,1-6.938-5.062l-.531.031a.541.541,0,0,1-.375-.141A.462.462,0,0,1-8-5.531v-.937a.462.462,0,0,1,.156-.359.541.541,0,0,1,.375-.141l.531.031A6.876,6.876,0,0,1-5.563-10.25l-.406-.344a.511.511,0,0,1-.156-.375A.465.465,0,0,1-6-11.312L-5.313-12a.465.465,0,0,1,.344-.125.511.511,0,0,1,.375.156l.344.406A6.876,6.876,0,0,1-.938-12.937l-.031-.531a.541.541,0,0,1,.141-.375A.462.462,0,0,1-.469-14H.469a.462.462,0,0,1,.359.156.541.541,0,0,1,.141.375l-.031.531A6.876,6.876,0,0,1,4.25-11.562l.344-.406a.511.511,0,0,1,.375-.156A.465.465,0,0,1,5.312-12L6-11.312a.465.465,0,0,1,.125.344.511.511,0,0,1-.156.375l-.406.344A6.876,6.876,0,0,1,6.937-6.937ZM.812-10.906l-.125,2a2.325,2.325,0,0,1,.875.375l1.344-1.531A5,5,0,0,0,.812-10.906Zm-1.625,0a5,5,0,0,0-2.094.844l1.344,1.531a2.325,2.325,0,0,1,.875-.375Zm-3.25,2a5,5,0,0,0-.844,2.094l2,.125a2.325,2.325,0,0,1,.375-.875Zm-.844,3.719a5,5,0,0,0,.844,2.094l1.531-1.344a2.325,2.325,0,0,1-.375-.875ZM-.813-1.094l.125-2a2.325,2.325,0,0,1-.875-.375L-2.906-1.937A5,5,0,0,0-.813-1.094ZM0-5a.961.961,0,0,0,.7-.3A.961.961,0,0,0,1-6a.961.961,0,0,0-.3-.7A.961.961,0,0,0,0-7a.961.961,0,0,0-.7.3A.961.961,0,0,0-1-6a.961.961,0,0,0,.3.7A.961.961,0,0,0,0-5ZM.812-1.094a5,5,0,0,0,2.094-.844L1.562-3.469a2.325,2.325,0,0,1-.875.375Zm3.25-2a5,5,0,0,0,.844-2.094l-2-.125a2.325,2.325,0,0,1-.375.875ZM2.906-6.687l2-.125a5,5,0,0,0-.844-2.094L2.531-7.562A2.325,2.325,0,0,1,2.906-6.687Z" transform="translate(8 14)"/></svg>