<svg xmlns="http://www.w3.org/2000/svg" width="12" height="16" viewBox="0 0 12 16"><defs><style>.a{fill:#00547a;}</style></defs><path class="a" d="M5.5-12.5H5v4.906q1,.5,1,1.094a5.788,5.788,0,0,1-.734,2.875A5.976,5.976,0,0,1,3.281-1.5L3.969.719a.986.986,0,0,1-.172.875A.938.938,0,0,1,3,2H-3a.938.938,0,0,1-.8-.406A.986.986,0,0,1-3.969.719L-3.281-1.5A5.976,5.976,0,0,1-5.266-3.625,5.788,5.788,0,0,1-6-6.5q0-.594,1-1.094V-12.5h-.5a.487.487,0,0,1-.359-.141A.487.487,0,0,1-6-13v-.5a.487.487,0,0,1,.141-.359A.487.487,0,0,1-5.5-14h11a.487.487,0,0,1,.359.141A.487.487,0,0,1,6-13.5v.5a.487.487,0,0,1-.141.359A.487.487,0,0,1,5.5-12.5Zm-9,.75v.5a.239.239,0,0,0,.078.172A.239.239,0,0,0-3.25-11h1.5a.239.239,0,0,0,.172-.078A.239.239,0,0,0-1.5-11.25v-.5a.239.239,0,0,0-.078-.172A.239.239,0,0,0-1.75-12h-1.5a.239.239,0,0,0-.172.078A.239.239,0,0,0-3.5-11.75ZM0-5.5a13.9,13.9,0,0,0,3.094-.3q1.281-.3,1.281-.7T3.094-7.2A13.9,13.9,0,0,0,0-7.5a13.9,13.9,0,0,0-3.094.3q-1.281.3-1.281.7t1.281.7A13.9,13.9,0,0,0,0-5.5Z" transform="translate(6 14)"/></svg>