<svg xmlns="http://www.w3.org/2000/svg" width="14" height="16" viewBox="0 0 14 16"><defs><style>.a{fill:#00547a;}</style></defs><path class="a" d="M5.5-7a1.447,1.447,0,0,1,1.062.437A1.447,1.447,0,0,1,7-5.5v6a1.447,1.447,0,0,1-.437,1.062A1.447,1.447,0,0,1,5.5,2h-11a1.447,1.447,0,0,1-1.062-.437A1.447,1.447,0,0,1-7,.5v-6a1.447,1.447,0,0,1,.437-1.062A1.447,1.447,0,0,1-5.5-7h.75V-9.25a4.617,4.617,0,0,1,.641-2.375,4.774,4.774,0,0,1,1.734-1.734A4.617,4.617,0,0,1,0-14a4.617,4.617,0,0,1,2.375.641,4.774,4.774,0,0,1,1.734,1.734A4.617,4.617,0,0,1,4.75-9.25V-7ZM2.25-7V-9.25a2.17,2.17,0,0,0-.656-1.594A2.17,2.17,0,0,0,0-11.5a2.17,2.17,0,0,0-1.594.656A2.17,2.17,0,0,0-2.25-9.25V-7Z" transform="translate(7 14)"/></svg>