<svg xmlns="http://www.w3.org/2000/svg" width="14.306" height="16" viewBox="0 0 14.306 16"><defs><style>.a{fill:#00547a;}</style></defs><path class="a" d="M.844,2a7.786,7.786,0,0,1-4-1.078A8.058,8.058,0,0,1-6.078-1.984,7.761,7.761,0,0,1-7.156-6a7.761,7.761,0,0,1,1.078-4.016,8.058,8.058,0,0,1,2.922-2.906A7.786,7.786,0,0,1,.844-14a8.556,8.556,0,0,1,1.469.125.371.371,0,0,1,.3.312.381.381,0,0,1-.172.406A6.046,6.046,0,0,0,.109-10.875,6.145,6.145,0,0,0-.75-7.719,6.1,6.1,0,0,0,.3-4.25,6.094,6.094,0,0,0,3.062-1.969a6.265,6.265,0,0,0,3.656.406.3.3,0,0,1,.375.172.35.35,0,0,1-.031.422,7.814,7.814,0,0,1-2.75,2.187A7.9,7.9,0,0,1,.844,2Z" transform="translate(7.156 14)"/></svg>