<svg xmlns="http://www.w3.org/2000/svg" width="10" height="14" viewBox="0 0 10 14"><defs><style>.a{fill:#00547a;}</style></defs><path class="a" d="M4.625-3a.362.362,0,0,1,.266.109A.362.362,0,0,1,5-2.625V.625a.362.362,0,0,1-.109.266A.362.362,0,0,1,4.625,1h-9.25A.362.362,0,0,1-4.891.891.362.362,0,0,1-5,.625V-.625a.362.362,0,0,1,.109-.266A.362.362,0,0,1-4.625-1H-3.5V-5h-.875a.362.362,0,0,1-.266-.109.362.362,0,0,1-.109-.266v-1.25a.362.362,0,0,1,.109-.266A.362.362,0,0,1-4.375-7H-3.5V-9.062a3.773,3.773,0,0,1,.562-2.031A3.789,3.789,0,0,1-1.375-12.5,4.962,4.962,0,0,1,.875-13a5.049,5.049,0,0,1,1.969.406,6.338,6.338,0,0,1,1.219.687.342.342,0,0,1,.141.25.389.389,0,0,1-.078.281L3.219-10.25a.466.466,0,0,1-.234.125.313.313,0,0,1-.266-.062,3.373,3.373,0,0,0-1.8-.594,1.912,1.912,0,0,0-1.391.516A1.7,1.7,0,0,0-1-9v2H1.625a.362.362,0,0,1,.266.109A.362.362,0,0,1,2-6.625v1.25a.362.362,0,0,1-.109.266A.362.362,0,0,1,1.625-5H-1v3.969H2.844V-2.625a.362.362,0,0,1,.109-.266A.362.362,0,0,1,3.219-3Z" transform="translate(5 13)"/></svg>