<svg xmlns="http://www.w3.org/2000/svg" width="15.5" height="15.75" viewBox="0 0 15.5 15.75"><defs><style>.a{fill:#00547a;}</style></defs><path class="a" d="M4.5-12.312A7.635,7.635,0,0,1,6.875-9.578,7.6,7.6,0,0,1,7.75-6,7.513,7.513,0,0,1,6.7-2.125,7.87,7.87,0,0,1,3.891.7,7.459,7.459,0,0,1,.016,1.75,7.541,7.541,0,0,1-3.875.7,7.87,7.87,0,0,1-6.7-2.109,7.487,7.487,0,0,1-7.75-6a7.513,7.513,0,0,1,.875-3.562A7.958,7.958,0,0,1-4.5-12.312a.744.744,0,0,1,.609-.109.718.718,0,0,1,.484.359l.5.875a.777.777,0,0,1,.062.531.7.7,0,0,1-.281.437A5.322,5.322,0,0,0-4.688-8.375,5.117,5.117,0,0,0-5.25-6a5.165,5.165,0,0,0,.7,2.625A5.192,5.192,0,0,0-2.641-1.453a5.11,5.11,0,0,0,2.625.7,5.194,5.194,0,0,0,2.641-.7A5.156,5.156,0,0,0,4.547-3.375a5.223,5.223,0,0,0,.7-2.656,5.082,5.082,0,0,0-.562-2.328,5.28,5.28,0,0,0-1.562-1.859.7.7,0,0,1-.281-.437.777.777,0,0,1,.063-.531l.5-.875a.718.718,0,0,1,.484-.359A.744.744,0,0,1,4.5-12.312ZM1.25-5.75a.723.723,0,0,1-.219.531A.723.723,0,0,1,.5-5h-1a.723.723,0,0,1-.531-.219A.723.723,0,0,1-1.25-5.75v-7.5a.723.723,0,0,1,.219-.531A.723.723,0,0,1-.5-14h1a.723.723,0,0,1,.531.219.723.723,0,0,1,.219.531Z" transform="translate(7.75 14)"/></svg>