<svg xmlns="http://www.w3.org/2000/svg" width="12.008" height="15.99" viewBox="0 0 12.008 15.99"><defs><style>.a{fill:#00547a;}</style></defs><path class="a" d="M-2.969-2.656A2.275,2.275,0,0,0-1.344-2,2.131,2.131,0,0,0-.25-2.312l-1.625,4a.442.442,0,0,1-.359.3.487.487,0,0,1-.453-.141L-3.844.656-5.469.719A.507.507,0,0,1-5.906.5.475.475,0,0,1-5.969.031l1.437-3.5a2.261,2.261,0,0,0,.781.437l.281.063a1.3,1.3,0,0,1,.266.094,1.092,1.092,0,0,1,.141.125ZM5.969.031A.475.475,0,0,1,5.906.5a.507.507,0,0,1-.437.219L3.844.656,2.687,1.844a.487.487,0,0,1-.453.141.442.442,0,0,1-.359-.3l-1.625-4A2.131,2.131,0,0,0,1.344-2a2.275,2.275,0,0,0,1.625-.656l.094-.094A1.092,1.092,0,0,1,3.2-2.875a1.3,1.3,0,0,1,.266-.094l.281-.062a2.261,2.261,0,0,0,.781-.437ZM2.219-3.375a1.215,1.215,0,0,1-.75.359,1.3,1.3,0,0,1-.812-.172A1.155,1.155,0,0,0,0-3.375a1.155,1.155,0,0,0-.656.187,1.3,1.3,0,0,1-.812.172A1.15,1.15,0,0,1-2.2-3.375a2,2,0,0,0-.453-.391,2.857,2.857,0,0,0-.562-.172L-3.438-4a1.221,1.221,0,0,1-.547-.344,1.405,1.405,0,0,1-.328-.562l-.062-.156a3.292,3.292,0,0,0-.2-.641A3.623,3.623,0,0,0-5-6.219l-.125-.125a1.2,1.2,0,0,1-.328-.578,1.482,1.482,0,0,1-.016-.641l.063-.187a3.546,3.546,0,0,0,.125-.656,3.546,3.546,0,0,0-.125-.656l-.062-.156a1.62,1.62,0,0,1,.016-.672,1.2,1.2,0,0,1,.328-.578L-5-10.594a2.893,2.893,0,0,0,.422-.484,3.293,3.293,0,0,0,.2-.641l.063-.187a1.405,1.405,0,0,1,.328-.562,1.221,1.221,0,0,1,.547-.344l.156-.031a2.482,2.482,0,0,0,.641-.219,4.065,4.065,0,0,0,.484-.437l.125-.125a1.2,1.2,0,0,1,.578-.328,1.482,1.482,0,0,1,.641-.016l.156.063A3.546,3.546,0,0,0,0-13.781a3.546,3.546,0,0,0,.656-.125l.156-.062a1.482,1.482,0,0,1,.641.016,1.2,1.2,0,0,1,.578.328l.125.125a4.065,4.065,0,0,0,.484.437,2.482,2.482,0,0,0,.641.219l.156.031a1.221,1.221,0,0,1,.547.344,1.405,1.405,0,0,1,.328.562l.063.187a3.292,3.292,0,0,0,.2.641A2.893,2.893,0,0,0,5-10.594l.125.125a1.2,1.2,0,0,1,.328.578,1.62,1.62,0,0,1,.016.672l-.062.156a3.546,3.546,0,0,0-.125.656,3.546,3.546,0,0,0,.125.656l.063.187a1.482,1.482,0,0,1-.016.641,1.2,1.2,0,0,1-.328.578L5-6.219a3.623,3.623,0,0,0-.422.516,3.292,3.292,0,0,0-.2.641l-.062.156a1.405,1.405,0,0,1-.328.562A1.221,1.221,0,0,1,3.437-4l-.25.062a2.87,2.87,0,0,0-.531.172A1.806,1.806,0,0,0,2.219-3.375ZM-2.938-8.5a2.92,2.92,0,0,0,.859,2.125A2.806,2.806,0,0,0,0-5.5a2.806,2.806,0,0,0,2.078-.875A2.92,2.92,0,0,0,2.937-8.5a2.92,2.92,0,0,0-.859-2.125A2.806,2.806,0,0,0,0-11.5a2.806,2.806,0,0,0-2.078.875A2.92,2.92,0,0,0-2.938-8.5Z" transform="translate(6.004 13.997)"/></svg>