<svg xmlns="http://www.w3.org/2000/svg" width="16" height="16" viewBox="0 0 16 16"><defs><style>.a{fill:#00547a;}</style></defs><path class="a" d="M2.5,0A.481.481,0,0,1,3,.5v1a.481.481,0,0,1-.5.5h-10a.487.487,0,0,1-.359-.141A.487.487,0,0,1-8,1.5V.5A.487.487,0,0,1-7.859.141.487.487,0,0,1-7.5,0ZM7.406-10.656A1.958,1.958,0,0,1,8-9.219V-2.25A2.173,2.173,0,0,1,7.266-.578,2.164,2.164,0,0,1,5.531,0,2.134,2.134,0,0,1,4.078-.781,2.4,2.4,0,0,1,3.5-2.375V-3.25a1.209,1.209,0,0,0-.359-.891A1.209,1.209,0,0,0,2.25-4.5H2V-1H-7V-12a1.922,1.922,0,0,1,.594-1.406A1.922,1.922,0,0,1-5-14H0a1.922,1.922,0,0,1,1.406.594A1.922,1.922,0,0,1,2-12v6h.25a2.645,2.645,0,0,1,1.937.812A2.645,2.645,0,0,1,5-3.25v1a.723.723,0,0,0,.219.531A.723.723,0,0,0,5.75-1.5a.723.723,0,0,0,.531-.219A.723.723,0,0,0,6.5-2.25V-7.281a1.745,1.745,0,0,1-1.062-.578A1.646,1.646,0,0,1,5-9v-1.937L3.812-12.125a.465.465,0,0,1-.125-.344.465.465,0,0,1,.125-.344l.375-.375a.465.465,0,0,1,.344-.125.465.465,0,0,1,.344.125ZM0-8v-4H-5v4Z" transform="translate(8 14)"/></svg>