<svg xmlns="http://www.w3.org/2000/svg" width="16" height="14" viewBox="0 0 16 14"><defs><style>.a{fill:#00547a;}</style></defs><path class="a" d="M4.187-9.75a.723.723,0,0,0,.219-.531.723.723,0,0,0-.219-.531l-.375-.375a.723.723,0,0,0-.531-.219.723.723,0,0,0-.531.219,3.5,3.5,0,0,0-1.578-.734,3.611,3.611,0,0,0-1.734.078,5.121,5.121,0,0,0-1.391-.844A4.218,4.218,0,0,0-3.563-13a4.347,4.347,0,0,0-2.234.594A4.416,4.416,0,0,0-7.406-10.8,4.347,4.347,0,0,0-8-8.562V1h2V-8.562a2.345,2.345,0,0,1,.719-1.719A2.345,2.345,0,0,1-3.563-11a2.355,2.355,0,0,1,1.281.375A3.357,3.357,0,0,0-3-8.422,3.435,3.435,0,0,0-2.188-6.25a.723.723,0,0,0-.219.531.723.723,0,0,0,.219.531l.375.375a.723.723,0,0,0,.531.219A.723.723,0,0,0-.75-4.812ZM4-7.5a.487.487,0,0,0-.141-.359A.487.487,0,0,0,3.5-8a.487.487,0,0,0-.359.141A.487.487,0,0,0,3-7.5a.487.487,0,0,0,.141.359A.487.487,0,0,0,3.5-7a.487.487,0,0,0,.359-.141A.487.487,0,0,0,4-7.5Zm1,0a.487.487,0,0,0,.141.359A.487.487,0,0,0,5.5-7a.487.487,0,0,0,.359-.141A.487.487,0,0,0,6-7.5a.487.487,0,0,0-.141-.359A.487.487,0,0,0,5.5-8a.487.487,0,0,0-.359.141A.487.487,0,0,0,5-7.5Zm3,0a.487.487,0,0,0-.141-.359A.487.487,0,0,0,7.5-8a.487.487,0,0,0-.359.141A.487.487,0,0,0,7-7.5a.487.487,0,0,0,.141.359A.487.487,0,0,0,7.5-7a.487.487,0,0,0,.359-.141A.487.487,0,0,0,8-7.5Zm-5,1a.487.487,0,0,0-.141-.359A.487.487,0,0,0,2.5-7a.487.487,0,0,0-.359.141A.487.487,0,0,0,2-6.5a.487.487,0,0,0,.141.359A.487.487,0,0,0,2.5-6a.487.487,0,0,0,.359-.141A.487.487,0,0,0,3-6.5ZM4.5-7a.487.487,0,0,0-.359.141A.487.487,0,0,0,4-6.5a.487.487,0,0,0,.141.359A.487.487,0,0,0,4.5-6a.487.487,0,0,0,.359-.141A.487.487,0,0,0,5-6.5a.487.487,0,0,0-.141-.359A.487.487,0,0,0,4.5-7ZM7-6.5a.487.487,0,0,0-.141-.359A.487.487,0,0,0,6.5-7a.487.487,0,0,0-.359.141A.487.487,0,0,0,6-6.5a.487.487,0,0,0,.141.359A.487.487,0,0,0,6.5-6a.487.487,0,0,0,.359-.141A.487.487,0,0,0,7-6.5Zm-5,1a.487.487,0,0,0-.141-.359A.487.487,0,0,0,1.5-6a.487.487,0,0,0-.359.141A.487.487,0,0,0,1-5.5a.487.487,0,0,0,.141.359A.487.487,0,0,0,1.5-5a.487.487,0,0,0,.359-.141A.487.487,0,0,0,2-5.5Zm1,0a.487.487,0,0,0,.141.359A.487.487,0,0,0,3.5-5a.487.487,0,0,0,.359-.141A.487.487,0,0,0,4-5.5a.487.487,0,0,0-.141-.359A.487.487,0,0,0,3.5-6a.487.487,0,0,0-.359.141A.487.487,0,0,0,3-5.5Zm3,0a.487.487,0,0,0-.141-.359A.487.487,0,0,0,5.5-6a.487.487,0,0,0-.359.141A.487.487,0,0,0,5-5.5a.487.487,0,0,0,.141.359A.487.487,0,0,0,5.5-5a.487.487,0,0,0,.359-.141A.487.487,0,0,0,6-5.5Zm-4,1a.487.487,0,0,0,.141.359A.487.487,0,0,0,2.5-4a.487.487,0,0,0,.359-.141A.487.487,0,0,0,3-4.5a.487.487,0,0,0-.141-.359A.487.487,0,0,0,2.5-5a.487.487,0,0,0-.359.141A.487.487,0,0,0,2-4.5Zm3,0a.487.487,0,0,0-.141-.359A.487.487,0,0,0,4.5-5a.487.487,0,0,0-.359.141A.487.487,0,0,0,4-4.5a.487.487,0,0,0,.141.359A.487.487,0,0,0,4.5-4a.487.487,0,0,0,.359-.141A.487.487,0,0,0,5-4.5Zm-3,1a.487.487,0,0,0-.141-.359A.487.487,0,0,0,1.5-4a.487.487,0,0,0-.359.141A.487.487,0,0,0,1-3.5a.487.487,0,0,0,.141.359A.487.487,0,0,0,1.5-3a.487.487,0,0,0,.359-.141A.487.487,0,0,0,2-3.5Zm2,0a.487.487,0,0,0-.141-.359A.487.487,0,0,0,3.5-4a.487.487,0,0,0-.359.141A.487.487,0,0,0,3-3.5a.487.487,0,0,0,.141.359A.487.487,0,0,0,3.5-3a.487.487,0,0,0,.359-.141A.487.487,0,0,0,4-3.5Zm-1,1a.487.487,0,0,0-.141-.359A.487.487,0,0,0,2.5-3a.487.487,0,0,0-.359.141A.487.487,0,0,0,2-2.5a.487.487,0,0,0,.141.359A.487.487,0,0,0,2.5-2a.487.487,0,0,0,.359-.141A.487.487,0,0,0,3-2.5Zm-1,1a.487.487,0,0,0-.141-.359A.487.487,0,0,0,1.5-2a.487.487,0,0,0-.359.141A.487.487,0,0,0,1-1.5a.487.487,0,0,0,.141.359A.487.487,0,0,0,1.5-1a.487.487,0,0,0,.359-.141A.487.487,0,0,0,2-1.5Z" transform="translate(8 13)"/></svg>