<svg xmlns="http://www.w3.org/2000/svg" width="19.987" height="16" viewBox="0 0 19.987 16"><defs><style>.a{fill:#00547a;}</style></defs><path class="a" d="M9.719-11a.474.474,0,0,1,.25.3.509.509,0,0,1-.031.391L8.156-6.75a.533.533,0,0,1-.3.266A.393.393,0,0,1,7.5-6.5L5.719-7.375a.475.475,0,0,0-.484.016A.46.46,0,0,0,5-6.937V1a.961.961,0,0,1-.3.7A.961.961,0,0,1,4,2H-4a.961.961,0,0,1-.7-.3A.961.961,0,0,1-5,1V-6.937a.46.46,0,0,0-.234-.422.475.475,0,0,0-.484-.016L-7.5-6.5a.432.432,0,0,1-.375.016.538.538,0,0,1-.281-.266l-1.781-3.562a.509.509,0,0,1-.031-.391.474.474,0,0,1,.25-.3l6.094-3a3.247,3.247,0,0,0,1.453,1.062A5.64,5.64,0,0,0,0-12.531a5.64,5.64,0,0,0,2.172-.406A3.479,3.479,0,0,0,3.656-14Z" transform="translate(9.994 14)"/></svg>