<svg xmlns="http://www.w3.org/2000/svg" width="18" height="12.003" viewBox="0 0 18 12.003"><defs><style>.a{fill:#00547a;}</style></defs><path class="a" d="M8.562-2a.521.521,0,0,1,.313.172A.478.478,0,0,1,9-1.5v1a.462.462,0,0,1-.156.359A.541.541,0,0,1,8.469,0,5.679,5.679,0,0,1,6-.812,5.453,5.453,0,0,1,3.016,0,5.611,5.611,0,0,1,0-.812,5.453,5.453,0,0,1-2.984,0,5.611,5.611,0,0,1-6-.812,5.5,5.5,0,0,1-8.469,0a.541.541,0,0,1-.375-.141A.462.462,0,0,1-9-.5v-1a.478.478,0,0,1,.125-.328A.521.521,0,0,1-8.563-2a3.639,3.639,0,0,0,1.781-.687A1.343,1.343,0,0,1-6.016-3a.858.858,0,0,1,.7.25,3.626,3.626,0,0,0,2.281.734,3.49,3.49,0,0,0,2.281-.7A1.282,1.282,0,0,1-.031-3a.929.929,0,0,1,.719.25,3.626,3.626,0,0,0,2.281.734,3.49,3.49,0,0,0,2.281-.7A1.163,1.163,0,0,1,6-2.969a1.163,1.163,0,0,1,.75.25A3.666,3.666,0,0,0,8.562-2Zm0-4.5a.521.521,0,0,1,.313.172A.478.478,0,0,1,9-6v1a.462.462,0,0,1-.156.359.541.541,0,0,1-.375.141A5.679,5.679,0,0,1,6-5.312,5.453,5.453,0,0,1,3.016-4.5,5.611,5.611,0,0,1,0-5.312,5.453,5.453,0,0,1-2.984-4.5,5.611,5.611,0,0,1-6-5.312,5.5,5.5,0,0,1-8.469-4.5a.541.541,0,0,1-.375-.141A.462.462,0,0,1-9-5V-6a.478.478,0,0,1,.125-.328A.521.521,0,0,1-8.563-6.5a3.639,3.639,0,0,0,1.781-.687A1.343,1.343,0,0,1-6.016-7.5a.858.858,0,0,1,.7.25,3.626,3.626,0,0,0,2.281.734,3.49,3.49,0,0,0,2.281-.7A1.282,1.282,0,0,1-.031-7.5a.989.989,0,0,1,.719.219,3.524,3.524,0,0,0,2.281.766,3.49,3.49,0,0,0,2.281-.7A1.163,1.163,0,0,1,6-7.469a1.163,1.163,0,0,1,.75.25A3.666,3.666,0,0,0,8.562-6.5Zm0-4.5a.521.521,0,0,1,.313.172A.478.478,0,0,1,9-10.5v1a.462.462,0,0,1-.156.359A.541.541,0,0,1,8.469-9,5.679,5.679,0,0,1,6-9.812,5.453,5.453,0,0,1,3.016-9,5.611,5.611,0,0,1,0-9.812,5.453,5.453,0,0,1-2.984-9,5.611,5.611,0,0,1-6-9.812,5.5,5.5,0,0,1-8.469-9a.541.541,0,0,1-.375-.141A.462.462,0,0,1-9-9.5v-1a.478.478,0,0,1,.125-.328A.521.521,0,0,1-8.563-11a3.639,3.639,0,0,0,1.781-.687A1.343,1.343,0,0,1-6.016-12a.858.858,0,0,1,.7.25,3.626,3.626,0,0,0,2.281.734,3.49,3.49,0,0,0,2.281-.7A1.282,1.282,0,0,1-.031-12a.929.929,0,0,1,.719.25,3.626,3.626,0,0,0,2.281.734,3.49,3.49,0,0,0,2.281-.7,1.163,1.163,0,0,1,.75-.25,1.163,1.163,0,0,1,.75.25A3.516,3.516,0,0,0,8.562-11Z" transform="translate(9 12.003)"/></svg>