<svg xmlns="http://www.w3.org/2000/svg" width="20" height="14" viewBox="0 0 20 14"><defs><style>.a{fill:#00547a;}</style></defs><path class="a" d="M9.844-9.156A.416.416,0,0,1,10-8.812a.511.511,0,0,1-.156.375L8.781-7.375a.641.641,0,0,1-.359.141.361.361,0,0,1-.328-.141,11.665,11.665,0,0,0-5.219-2.781,11.68,11.68,0,0,0-5.75,0A11.665,11.665,0,0,0-8.094-7.375a.361.361,0,0,1-.328.141.641.641,0,0,1-.359-.141L-9.844-8.437A.511.511,0,0,1-10-8.812a.416.416,0,0,1,.156-.344A13.967,13.967,0,0,1-3.5-12.562a14.219,14.219,0,0,1,7,0A13.967,13.967,0,0,1,9.844-9.156ZM0-3a1.933,1.933,0,0,1,1.422.578A1.933,1.933,0,0,1,2-1,1.933,1.933,0,0,1,1.422.422,1.933,1.933,0,0,1,0,1,1.933,1.933,0,0,1-1.422.422,1.933,1.933,0,0,1-2-1a1.933,1.933,0,0,1,.578-1.422A1.933,1.933,0,0,1,0-3ZM6.344-5.625A.511.511,0,0,1,6.5-5.25a.511.511,0,0,1-.156.375L5.281-3.812a.538.538,0,0,1-.344.125.538.538,0,0,1-.344-.125A7.139,7.139,0,0,0,1.641-5.3a6.988,6.988,0,0,0-3.281,0A7.139,7.139,0,0,0-4.594-3.812a.538.538,0,0,1-.344.125.538.538,0,0,1-.344-.125L-6.344-4.875A.511.511,0,0,1-6.5-5.25a.511.511,0,0,1,.156-.375A9.4,9.4,0,0,1-2.281-7.734a9.653,9.653,0,0,1,4.562,0A9.4,9.4,0,0,1,6.344-5.625Z" transform="translate(10 13)"/></svg>