<svg xmlns="http://www.w3.org/2000/svg" width="17.927" height="17.935" viewBox="0 0 17.927 17.935"><defs><style>.a{fill:#003c57;}</style></defs><g transform="translate(-0.1)"><g transform="translate(5.313 5.217)"><path class="a" d="M134.638,132.159h-1.677v-1.7a.4.4,0,1,0-.8,0v1.7h-1.7a.4.4,0,1,0,0,.8h1.7v1.681a.4.4,0,1,0,.8,0v-1.681h1.677a.4.4,0,1,0,0-.8Z" transform="translate(-130.057 -130.057)"/></g><g transform="translate(1.71 1.61)"><path class="a" d="M50.619,41.91a6.087,6.087,0,1,0,0,8.609A6.1,6.1,0,0,0,50.619,41.91Zm-.57,8.043a5.284,5.284,0,1,1,0-7.473A5.291,5.291,0,0,1,50.049,49.953Z" transform="translate(-40.232 -40.132)"/></g><g transform="translate(0.1 0)"><g transform="translate(0 0)"><path class="a" d="M17.6,15.41l-.012-.012-3.41-3.418A7.691,7.691,0,1,0,7.25,15.366c.181.012.361.02.538.02a7.7,7.7,0,0,0,4.288-1.3l3.41,3.41A1.484,1.484,0,0,0,17.6,15.41Zm-5.716-2.174a6.88,6.88,0,1,1,1.44-1.432A6.893,6.893,0,0,1,11.884,13.236Zm5.139,3.691a.683.683,0,0,1-.967,0l-3.33-3.33c.172-.144.341-.3.505-.461s.317-.333.461-.505l3.33,3.33A.688.688,0,0,1,17.022,16.926Z" transform="translate(-0.1 0)"/></g></g></g></svg>